<?xml version="1.0" encoding="UTF-8" standalone="no"?>
<!-- Created with Inkscape (http://www.inkscape.org/) -->

<svg
   xmlns:dc="http://purl.org/dc/elements/1.1/"
   xmlns:cc="http://creativecommons.org/ns#"
   xmlns:rdf="http://www.w3.org/1999/02/22-rdf-syntax-ns#"
   xmlns:svg="http://www.w3.org/2000/svg"
   xmlns="http://www.w3.org/2000/svg"
   xmlns:sodipodi="http://sodipodi.sourceforge.net/DTD/sodipodi-0.dtd"
   xmlns:inkscape="http://www.inkscape.org/namespaces/inkscape"
   width="210mm"
   height="297mm"
   id="svg2"
   version="1.1"
   inkscape:version="0.48.5 r10040"
   sodipodi:docname="rule-thirds.svg">
  <defs
     id="defs4" />
  <sodipodi:namedview
     id="base"
     pagecolor="#ffffff"
     bordercolor="#666666"
     borderopacity="1.0"
     inkscape:pageopacity="0.0"
     inkscape:pageshadow="2"
     inkscape:zoom="1.4142136"
     inkscape:cx="80.07001"
     inkscape:cy="652.60764"
     inkscape:document-units="px"
     inkscape:current-layer="layer1"
     showgrid="false"
     inkscape:window-width="1680"
     inkscape:window-height="1032"
     inkscape:window-x="-2"
     inkscape:window-y="-3"
     inkscape:window-maximized="1" />
  <metadata
     id="metadata7">
    <rdf:RDF>
      <cc:Work
         rdf:about="">
        <dc:format>image/svg+xml</dc:format>
        <dc:type
           rdf:resource="http://purl.org/dc/dcmitype/StillImage" />
        <dc:title></dc:title>
      </cc:Work>
    </rdf:RDF>
  </metadata>
  <g
     inkscape:label="Ebene 1"
     inkscape:groupmode="layer"
     id="layer1">
    <rect
       style="fill:#ffffff;stroke:#000000;stroke-width:0.96200001;stroke-miterlimit:4;stroke-dasharray:none;stroke-dashoffset:0"
       id="rect2985"
       width="172.73608"
       height="244.45692"
       x="142.4315"
       y="311.92038"
       ry="9.2034168" />
    <g
       id="g3894"
       transform="translate(14,14)">
      <g
         id="g3818">
        <path
           style="fill:none;stroke:#000000;stroke-width:1px;stroke-linecap:butt;stroke-linejoin:miter;stroke-opacity:1"
           d="m 159,339.86219 c 0.66667,-0.16667 1.32616,-0.36524 2,-0.5 1.06315,-0.21264 -0.075,0.54999 1.5,-0.5 1.14415,-0.76277 -0.31265,-0.39579 1.5,-1 0.15811,-0.0527 0.34189,0.0527 0.5,0 0.35355,-0.11786 0.63845,-0.40962 1,-0.5 0.33837,-0.0846 3.17825,0 3.5,0 2.83333,0 5.66667,0 8.5,0 1.66667,0 3.33333,0 5,0 0.5,0 1,0 1.5,0 0.16667,0 0.36132,-0.0924 0.5,0 0.39223,0.26148 0.59577,0.75746 1,1 2.15706,1.29423 0.75739,0.0643 2.5,0.5 0.36155,0.0904 0.64645,0.38214 1,0.5 0.31623,0.1054 0.66667,0 1,0 0.66667,0 1.33333,0 2,0 8,0 16,0 24,0 2,0 4,0 6,0 0.83333,0 1.66667,0 2.5,0 0.66667,0 1.37578,0.23408 2,0 0.78027,-0.29261 1.28542,-1.07126 2,-1.5 0.12723,-0.0763 2.38925,0 2.5,0 1.16667,0 2.33333,0 3.5,0 0.5,0 1.00971,-0.0981 1.5,0 0.51681,0.10336 1,0.33333 1.5,0.5 0.5,0.16666 1.02859,0.26429 1.5,0.5 0.21082,0.1054 0.27133,0.44283 0.5,0.5 0.48507,0.12126 1.03576,-0.1857 1.5,0 0.43769,0.17507 0.56231,0.82492 1,1 0.46424,0.18569 1.01493,-0.12127 1.5,0 0.22866,0.0572 0.27639,0.42546 0.5,0.5 0.31623,0.1054 0.66667,0 1,0 0.33333,0 0.66667,0 1,0 1,0 2,0 3,0 0.83333,0 1.66667,0 2.5,0 0.66667,0 1.34003,0.0943 2,0 0.52175,-0.0745 0.98012,-0.41336 1.5,-0.5 0.4932,-0.0822 1,0 1.5,0 0.16667,0 0.33831,0.0404 0.5,0 0.51131,-0.12783 0.98869,-0.37218 1.5,-0.5 0.42603,-0.10651 1.05917,0 1.5,0 1.5,0 3,0 4.5,0"
           id="path3792"
           inkscape:connector-curvature="0" />
        <path
           inkscape:connector-curvature="0"
           id="path3794"
           d="m 159,347.86219 c 0.66667,-0.16667 1.32616,-0.36524 2,-0.5 1.06315,-0.21264 -0.075,0.54999 1.5,-0.5 1.14415,-0.76277 -0.31265,-0.39579 1.5,-1 0.15811,-0.0527 0.34189,0.0527 0.5,0 0.35355,-0.11786 0.63845,-0.40962 1,-0.5 0.33837,-0.0846 3.17825,0 3.5,0 2.83333,0 5.66667,0 8.5,0 1.66667,0 3.33333,0 5,0 0.5,0 1,0 1.5,0 0.16667,0 0.36132,-0.0924 0.5,0 0.39223,0.26148 0.59577,0.75746 1,1 2.15706,1.29423 0.75739,0.0643 2.5,0.5 0.36155,0.0904 0.64645,0.38214 1,0.5 0.31623,0.1054 0.66667,0 1,0 0.66667,0 1.33333,0 2,0 8,0 16,0 24,0 2,0 4,0 6,0 0.83333,0 1.66667,0 2.5,0 0.66667,0 1.37578,0.23408 2,0 0.78027,-0.29261 1.28542,-1.07126 2,-1.5 0.12723,-0.0763 2.38925,0 2.5,0 1.16667,0 2.33333,0 3.5,0 0.5,0 1.00971,-0.0981 1.5,0 0.51681,0.10336 1,0.33333 1.5,0.5 0.5,0.16666 1.02859,0.26429 1.5,0.5 0.21082,0.1054 0.27133,0.44283 0.5,0.5 0.48507,0.12126 1.03576,-0.1857 1.5,0 0.43769,0.17507 0.56231,0.82492 1,1 0.46424,0.18569 1.01493,-0.12127 1.5,0 0.22866,0.0572 0.27639,0.42546 0.5,0.5 0.31623,0.1054 0.66667,0 1,0 0.33333,0 0.66667,0 1,0 1,0 2,0 3,0 0.83333,0 1.66667,0 2.5,0 0.66667,0 1.34003,0.0943 2,0 0.52175,-0.0745 0.98012,-0.41336 1.5,-0.5 0.4932,-0.0822 1,0 1.5,0 0.16667,0 0.33831,0.0404 0.5,0 0.51131,-0.12783 0.98869,-0.37218 1.5,-0.5 0.42603,-0.10651 1.05917,0 1.5,0 1.5,0 3,0 4.5,0"
           style="fill:none;stroke:#000000;stroke-width:1px;stroke-linecap:butt;stroke-linejoin:miter;stroke-opacity:1" />
      </g>
      <g
         transform="translate(0,16)"
         id="g3822">
        <path
           inkscape:connector-curvature="0"
           id="path3824"
           d="m 159,339.86219 c 0.66667,-0.16667 1.32616,-0.36524 2,-0.5 1.06315,-0.21264 -0.075,0.54999 1.5,-0.5 1.14415,-0.76277 -0.31265,-0.39579 1.5,-1 0.15811,-0.0527 0.34189,0.0527 0.5,0 0.35355,-0.11786 0.63845,-0.40962 1,-0.5 0.33837,-0.0846 3.17825,0 3.5,0 2.83333,0 5.66667,0 8.5,0 1.66667,0 3.33333,0 5,0 0.5,0 1,0 1.5,0 0.16667,0 0.36132,-0.0924 0.5,0 0.39223,0.26148 0.59577,0.75746 1,1 2.15706,1.29423 0.75739,0.0643 2.5,0.5 0.36155,0.0904 0.64645,0.38214 1,0.5 0.31623,0.1054 0.66667,0 1,0 0.66667,0 1.33333,0 2,0 8,0 16,0 24,0 2,0 4,0 6,0 0.83333,0 1.66667,0 2.5,0 0.66667,0 1.37578,0.23408 2,0 0.78027,-0.29261 1.28542,-1.07126 2,-1.5 0.12723,-0.0763 2.38925,0 2.5,0 1.16667,0 2.33333,0 3.5,0 0.5,0 1.00971,-0.0981 1.5,0 0.51681,0.10336 1,0.33333 1.5,0.5 0.5,0.16666 1.02859,0.26429 1.5,0.5 0.21082,0.1054 0.27133,0.44283 0.5,0.5 0.48507,0.12126 1.03576,-0.1857 1.5,0 0.43769,0.17507 0.56231,0.82492 1,1 0.46424,0.18569 1.01493,-0.12127 1.5,0 0.22866,0.0572 0.27639,0.42546 0.5,0.5 0.31623,0.1054 0.66667,0 1,0 0.33333,0 0.66667,0 1,0 1,0 2,0 3,0 0.83333,0 1.66667,0 2.5,0 0.66667,0 1.34003,0.0943 2,0 0.52175,-0.0745 0.98012,-0.41336 1.5,-0.5 0.4932,-0.0822 1,0 1.5,0 0.16667,0 0.33831,0.0404 0.5,0 0.51131,-0.12783 0.98869,-0.37218 1.5,-0.5 0.42603,-0.10651 1.05917,0 1.5,0 1.5,0 3,0 4.5,0"
           style="fill:none;stroke:#000000;stroke-width:1px;stroke-linecap:butt;stroke-linejoin:miter;stroke-opacity:1" />
        <path
           style="fill:none;stroke:#000000;stroke-width:1px;stroke-linecap:butt;stroke-linejoin:miter;stroke-opacity:1"
           d="m 159,347.86219 c 0.66667,-0.16667 1.32616,-0.36524 2,-0.5 1.06315,-0.21264 -0.075,0.54999 1.5,-0.5 1.14415,-0.76277 -0.31265,-0.39579 1.5,-1 0.15811,-0.0527 0.34189,0.0527 0.5,0 0.35355,-0.11786 0.63845,-0.40962 1,-0.5 0.33837,-0.0846 3.17825,0 3.5,0 2.83333,0 5.66667,0 8.5,0 1.66667,0 3.33333,0 5,0 0.5,0 1,0 1.5,0 0.16667,0 0.36132,-0.0924 0.5,0 0.39223,0.26148 0.59577,0.75746 1,1 2.15706,1.29423 0.75739,0.0643 2.5,0.5 0.36155,0.0904 0.64645,0.38214 1,0.5 0.31623,0.1054 0.66667,0 1,0 0.66667,0 1.33333,0 2,0 8,0 16,0 24,0 2,0 4,0 6,0 0.83333,0 1.66667,0 2.5,0 0.66667,0 1.37578,0.23408 2,0 0.78027,-0.29261 1.28542,-1.07126 2,-1.5 0.12723,-0.0763 2.38925,0 2.5,0 1.16667,0 2.33333,0 3.5,0 0.5,0 1.00971,-0.0981 1.5,0 0.51681,0.10336 1,0.33333 1.5,0.5 0.5,0.16666 1.02859,0.26429 1.5,0.5 0.21082,0.1054 0.27133,0.44283 0.5,0.5 0.48507,0.12126 1.03576,-0.1857 1.5,0 0.43769,0.17507 0.56231,0.82492 1,1 0.46424,0.18569 1.01493,-0.12127 1.5,0 0.22866,0.0572 0.27639,0.42546 0.5,0.5 0.31623,0.1054 0.66667,0 1,0 0.33333,0 0.66667,0 1,0 1,0 2,0 3,0 0.83333,0 1.66667,0 2.5,0 0.66667,0 1.34003,0.0943 2,0 0.52175,-0.0745 0.98012,-0.41336 1.5,-0.5 0.4932,-0.0822 1,0 1.5,0 0.16667,0 0.33831,0.0404 0.5,0 0.51131,-0.12783 0.98869,-0.37218 1.5,-0.5 0.42603,-0.10651 1.05917,0 1.5,0 1.5,0 3,0 4.5,0"
           id="path3826"
           inkscape:connector-curvature="0" />
      </g>
      <g
         id="g3828"
         transform="translate(0,32)">
        <path
           style="fill:none;stroke:#000000;stroke-width:1px;stroke-linecap:butt;stroke-linejoin:miter;stroke-opacity:1"
           d="m 159,339.86219 c 0.66667,-0.16667 1.32616,-0.36524 2,-0.5 1.06315,-0.21264 -0.075,0.54999 1.5,-0.5 1.14415,-0.76277 -0.31265,-0.39579 1.5,-1 0.15811,-0.0527 0.34189,0.0527 0.5,0 0.35355,-0.11786 0.63845,-0.40962 1,-0.5 0.33837,-0.0846 3.17825,0 3.5,0 2.83333,0 5.66667,0 8.5,0 1.66667,0 3.33333,0 5,0 0.5,0 1,0 1.5,0 0.16667,0 0.36132,-0.0924 0.5,0 0.39223,0.26148 0.59577,0.75746 1,1 2.15706,1.29423 0.75739,0.0643 2.5,0.5 0.36155,0.0904 0.64645,0.38214 1,0.5 0.31623,0.1054 0.66667,0 1,0 0.66667,0 1.33333,0 2,0 8,0 16,0 24,0 2,0 4,0 6,0 0.83333,0 1.66667,0 2.5,0 0.66667,0 1.37578,0.23408 2,0 0.78027,-0.29261 1.28542,-1.07126 2,-1.5 0.12723,-0.0763 2.38925,0 2.5,0 1.16667,0 2.33333,0 3.5,0 0.5,0 1.00971,-0.0981 1.5,0 0.51681,0.10336 1,0.33333 1.5,0.5 0.5,0.16666 1.02859,0.26429 1.5,0.5 0.21082,0.1054 0.27133,0.44283 0.5,0.5 0.48507,0.12126 1.03576,-0.1857 1.5,0 0.43769,0.17507 0.56231,0.82492 1,1 0.46424,0.18569 1.01493,-0.12127 1.5,0 0.22866,0.0572 0.27639,0.42546 0.5,0.5 0.31623,0.1054 0.66667,0 1,0 0.33333,0 0.66667,0 1,0 1,0 2,0 3,0 0.83333,0 1.66667,0 2.5,0 0.66667,0 1.34003,0.0943 2,0 0.52175,-0.0745 0.98012,-0.41336 1.5,-0.5 0.4932,-0.0822 1,0 1.5,0 0.16667,0 0.33831,0.0404 0.5,0 0.51131,-0.12783 0.98869,-0.37218 1.5,-0.5 0.42603,-0.10651 1.05917,0 1.5,0 1.5,0 3,0 4.5,0"
           id="path3830"
           inkscape:connector-curvature="0" />
        <path
           inkscape:connector-curvature="0"
           id="path3832"
           d="m 159,347.86219 c 0.66667,-0.16667 1.32616,-0.36524 2,-0.5 1.06315,-0.21264 -0.075,0.54999 1.5,-0.5 1.14415,-0.76277 -0.31265,-0.39579 1.5,-1 0.15811,-0.0527 0.34189,0.0527 0.5,0 0.35355,-0.11786 0.63845,-0.40962 1,-0.5 0.33837,-0.0846 3.17825,0 3.5,0 2.83333,0 5.66667,0 8.5,0 1.66667,0 3.33333,0 5,0 0.5,0 1,0 1.5,0 0.16667,0 0.36132,-0.0924 0.5,0 0.39223,0.26148 0.59577,0.75746 1,1 2.15706,1.29423 0.75739,0.0643 2.5,0.5 0.36155,0.0904 0.64645,0.38214 1,0.5 0.31623,0.1054 0.66667,0 1,0 0.66667,0 1.33333,0 2,0 8,0 16,0 24,0 2,0 4,0 6,0 0.83333,0 1.66667,0 2.5,0 0.66667,0 1.37578,0.23408 2,0 0.78027,-0.29261 1.28542,-1.07126 2,-1.5 0.12723,-0.0763 2.38925,0 2.5,0 1.16667,0 2.33333,0 3.5,0 0.5,0 1.00971,-0.0981 1.5,0 0.51681,0.10336 1,0.33333 1.5,0.5 0.5,0.16666 1.02859,0.26429 1.5,0.5 0.21082,0.1054 0.27133,0.44283 0.5,0.5 0.48507,0.12126 1.03576,-0.1857 1.5,0 0.43769,0.17507 0.56231,0.82492 1,1 0.46424,0.18569 1.01493,-0.12127 1.5,0 0.22866,0.0572 0.27639,0.42546 0.5,0.5 0.31623,0.1054 0.66667,0 1,0 0.33333,0 0.66667,0 1,0 1,0 2,0 3,0 0.83333,0 1.66667,0 2.5,0 0.66667,0 1.34003,0.0943 2,0 0.52175,-0.0745 0.98012,-0.41336 1.5,-0.5 0.4932,-0.0822 1,0 1.5,0 0.16667,0 0.33831,0.0404 0.5,0 0.51131,-0.12783 0.98869,-0.37218 1.5,-0.5 0.42603,-0.10651 1.05917,0 1.5,0 1.5,0 3,0 4.5,0"
           style="fill:none;stroke:#000000;stroke-width:1px;stroke-linecap:butt;stroke-linejoin:miter;stroke-opacity:1" />
      </g>
      <g
         transform="translate(0,48)"
         id="g3834">
        <path
           inkscape:connector-curvature="0"
           id="path3836"
           d="m 159,339.86219 c 0.66667,-0.16667 1.32616,-0.36524 2,-0.5 1.06315,-0.21264 -0.075,0.54999 1.5,-0.5 1.14415,-0.76277 -0.31265,-0.39579 1.5,-1 0.15811,-0.0527 0.34189,0.0527 0.5,0 0.35355,-0.11786 0.63845,-0.40962 1,-0.5 0.33837,-0.0846 3.17825,0 3.5,0 2.83333,0 5.66667,0 8.5,0 1.66667,0 3.33333,0 5,0 0.5,0 1,0 1.5,0 0.16667,0 0.36132,-0.0924 0.5,0 0.39223,0.26148 0.59577,0.75746 1,1 2.15706,1.29423 0.75739,0.0643 2.5,0.5 0.36155,0.0904 0.64645,0.38214 1,0.5 0.31623,0.1054 0.66667,0 1,0 0.66667,0 1.33333,0 2,0 8,0 16,0 24,0 2,0 4,0 6,0 0.83333,0 1.66667,0 2.5,0 0.66667,0 1.37578,0.23408 2,0 0.78027,-0.29261 1.28542,-1.07126 2,-1.5 0.12723,-0.0763 2.38925,0 2.5,0 1.16667,0 2.33333,0 3.5,0 0.5,0 1.00971,-0.0981 1.5,0 0.51681,0.10336 1,0.33333 1.5,0.5 0.5,0.16666 1.02859,0.26429 1.5,0.5 0.21082,0.1054 0.27133,0.44283 0.5,0.5 0.48507,0.12126 1.03576,-0.1857 1.5,0 0.43769,0.17507 0.56231,0.82492 1,1 0.46424,0.18569 1.01493,-0.12127 1.5,0 0.22866,0.0572 0.27639,0.42546 0.5,0.5 0.31623,0.1054 0.66667,0 1,0 0.33333,0 0.66667,0 1,0 1,0 2,0 3,0 0.83333,0 1.66667,0 2.5,0 0.66667,0 1.34003,0.0943 2,0 0.52175,-0.0745 0.98012,-0.41336 1.5,-0.5 0.4932,-0.0822 1,0 1.5,0 0.16667,0 0.33831,0.0404 0.5,0 0.51131,-0.12783 0.98869,-0.37218 1.5,-0.5 0.42603,-0.10651 1.05917,0 1.5,0 1.5,0 3,0 4.5,0"
           style="fill:none;stroke:#000000;stroke-width:1px;stroke-linecap:butt;stroke-linejoin:miter;stroke-opacity:1" />
        <path
           style="fill:none;stroke:#000000;stroke-width:1px;stroke-linecap:butt;stroke-linejoin:miter;stroke-opacity:1"
           d="m 159,347.86219 c 0.66667,-0.16667 1.32616,-0.36524 2,-0.5 1.06315,-0.21264 -0.075,0.54999 1.5,-0.5 1.14415,-0.76277 -0.31265,-0.39579 1.5,-1 0.15811,-0.0527 0.34189,0.0527 0.5,0 0.35355,-0.11786 0.63845,-0.40962 1,-0.5 0.33837,-0.0846 3.17825,0 3.5,0 2.83333,0 5.66667,0 8.5,0 1.66667,0 3.33333,0 5,0 0.5,0 1,0 1.5,0 0.16667,0 0.36132,-0.0924 0.5,0 0.39223,0.26148 0.59577,0.75746 1,1 2.15706,1.29423 0.75739,0.0643 2.5,0.5 0.36155,0.0904 0.64645,0.38214 1,0.5 0.31623,0.1054 0.66667,0 1,0 0.66667,0 1.33333,0 2,0 8,0 16,0 24,0 2,0 4,0 6,0 0.83333,0 1.66667,0 2.5,0 0.66667,0 1.37578,0.23408 2,0 0.78027,-0.29261 1.28542,-1.07126 2,-1.5 0.12723,-0.0763 2.38925,0 2.5,0 1.16667,0 2.33333,0 3.5,0 0.5,0 1.00971,-0.0981 1.5,0 0.51681,0.10336 1,0.33333 1.5,0.5 0.5,0.16666 1.02859,0.26429 1.5,0.5 0.21082,0.1054 0.27133,0.44283 0.5,0.5 0.48507,0.12126 1.03576,-0.1857 1.5,0 0.43769,0.17507 0.56231,0.82492 1,1 0.46424,0.18569 1.01493,-0.12127 1.5,0 0.22866,0.0572 0.27639,0.42546 0.5,0.5 0.31623,0.1054 0.66667,0 1,0 0.33333,0 0.66667,0 1,0 1,0 2,0 3,0 0.83333,0 1.66667,0 2.5,0 0.66667,0 1.34003,0.0943 2,0 0.52175,-0.0745 0.98012,-0.41336 1.5,-0.5 0.4932,-0.0822 1,0 1.5,0 0.16667,0 0.33831,0.0404 0.5,0 0.51131,-0.12783 0.98869,-0.37218 1.5,-0.5 0.42603,-0.10651 1.05917,0 1.5,0 1.5,0 3,0 4.5,0"
           id="path3838"
           inkscape:connector-curvature="0" />
      </g>
      <g
         id="g3840"
         transform="translate(0,64)">
        <path
           style="fill:none;stroke:#000000;stroke-width:1px;stroke-linecap:butt;stroke-linejoin:miter;stroke-opacity:1"
           d="m 159,339.86219 c 0.66667,-0.16667 1.32616,-0.36524 2,-0.5 1.06315,-0.21264 -0.075,0.54999 1.5,-0.5 1.14415,-0.76277 -0.31265,-0.39579 1.5,-1 0.15811,-0.0527 0.34189,0.0527 0.5,0 0.35355,-0.11786 0.63845,-0.40962 1,-0.5 0.33837,-0.0846 3.17825,0 3.5,0 2.83333,0 5.66667,0 8.5,0 1.66667,0 3.33333,0 5,0 0.5,0 1,0 1.5,0 0.16667,0 0.36132,-0.0924 0.5,0 0.39223,0.26148 0.59577,0.75746 1,1 2.15706,1.29423 0.75739,0.0643 2.5,0.5 0.36155,0.0904 0.64645,0.38214 1,0.5 0.31623,0.1054 0.66667,0 1,0 0.66667,0 1.33333,0 2,0 8,0 16,0 24,0 2,0 4,0 6,0 0.83333,0 1.66667,0 2.5,0 0.66667,0 1.37578,0.23408 2,0 0.78027,-0.29261 1.28542,-1.07126 2,-1.5 0.12723,-0.0763 2.38925,0 2.5,0 1.16667,0 2.33333,0 3.5,0 0.5,0 1.00971,-0.0981 1.5,0 0.51681,0.10336 1,0.33333 1.5,0.5 0.5,0.16666 1.02859,0.26429 1.5,0.5 0.21082,0.1054 0.27133,0.44283 0.5,0.5 0.48507,0.12126 1.03576,-0.1857 1.5,0 0.43769,0.17507 0.56231,0.82492 1,1 0.46424,0.18569 1.01493,-0.12127 1.5,0 0.22866,0.0572 0.27639,0.42546 0.5,0.5 0.31623,0.1054 0.66667,0 1,0 0.33333,0 0.66667,0 1,0 1,0 2,0 3,0 0.83333,0 1.66667,0 2.5,0 0.66667,0 1.34003,0.0943 2,0 0.52175,-0.0745 0.98012,-0.41336 1.5,-0.5 0.4932,-0.0822 1,0 1.5,0 0.16667,0 0.33831,0.0404 0.5,0 0.51131,-0.12783 0.98869,-0.37218 1.5,-0.5 0.42603,-0.10651 1.05917,0 1.5,0 1.5,0 3,0 4.5,0"
           id="path3842"
           inkscape:connector-curvature="0" />
        <path
           inkscape:connector-curvature="0"
           id="path3844"
           d="m 159,347.86219 c 0.66667,-0.16667 1.32616,-0.36524 2,-0.5 1.06315,-0.21264 -0.075,0.54999 1.5,-0.5 1.14415,-0.76277 -0.31265,-0.39579 1.5,-1 0.15811,-0.0527 0.34189,0.0527 0.5,0 0.35355,-0.11786 0.63845,-0.40962 1,-0.5 0.33837,-0.0846 3.17825,0 3.5,0 2.83333,0 5.66667,0 8.5,0 1.66667,0 3.33333,0 5,0 0.5,0 1,0 1.5,0 0.16667,0 0.36132,-0.0924 0.5,0 0.39223,0.26148 0.59577,0.75746 1,1 2.15706,1.29423 0.75739,0.0643 2.5,0.5 0.36155,0.0904 0.64645,0.38214 1,0.5 0.31623,0.1054 0.66667,0 1,0 0.66667,0 1.33333,0 2,0 8,0 16,0 24,0 2,0 4,0 6,0 0.83333,0 1.66667,0 2.5,0 0.66667,0 1.37578,0.23408 2,0 0.78027,-0.29261 1.28542,-1.07126 2,-1.5 0.12723,-0.0763 2.38925,0 2.5,0 1.16667,0 2.33333,0 3.5,0 0.5,0 1.00971,-0.0981 1.5,0 0.51681,0.10336 1,0.33333 1.5,0.5 0.5,0.16666 1.02859,0.26429 1.5,0.5 0.21082,0.1054 0.27133,0.44283 0.5,0.5 0.48507,0.12126 1.03576,-0.1857 1.5,0 0.43769,0.17507 0.56231,0.82492 1,1 0.46424,0.18569 1.01493,-0.12127 1.5,0 0.22866,0.0572 0.27639,0.42546 0.5,0.5 0.31623,0.1054 0.66667,0 1,0 0.33333,0 0.66667,0 1,0 1,0 2,0 3,0 0.83333,0 1.66667,0 2.5,0 0.66667,0 1.34003,0.0943 2,0 0.52175,-0.0745 0.98012,-0.41336 1.5,-0.5 0.4932,-0.0822 1,0 1.5,0 0.16667,0 0.33831,0.0404 0.5,0 0.51131,-0.12783 0.98869,-0.37218 1.5,-0.5 0.42603,-0.10651 1.05917,0 1.5,0 1.5,0 3,0 4.5,0"
           style="fill:none;stroke:#000000;stroke-width:1px;stroke-linecap:butt;stroke-linejoin:miter;stroke-opacity:1" />
      </g>
      <g
         transform="translate(0,80)"
         id="g3846">
        <path
           inkscape:connector-curvature="0"
           id="path3848"
           d="m 159,339.86219 c 0.66667,-0.16667 1.32616,-0.36524 2,-0.5 1.06315,-0.21264 -0.075,0.54999 1.5,-0.5 1.14415,-0.76277 -0.31265,-0.39579 1.5,-1 0.15811,-0.0527 0.34189,0.0527 0.5,0 0.35355,-0.11786 0.63845,-0.40962 1,-0.5 0.33837,-0.0846 3.17825,0 3.5,0 2.83333,0 5.66667,0 8.5,0 1.66667,0 3.33333,0 5,0 0.5,0 1,0 1.5,0 0.16667,0 0.36132,-0.0924 0.5,0 0.39223,0.26148 0.59577,0.75746 1,1 2.15706,1.29423 0.75739,0.0643 2.5,0.5 0.36155,0.0904 0.64645,0.38214 1,0.5 0.31623,0.1054 0.66667,0 1,0 0.66667,0 1.33333,0 2,0 8,0 16,0 24,0 2,0 4,0 6,0 0.83333,0 1.66667,0 2.5,0 0.66667,0 1.37578,0.23408 2,0 0.78027,-0.29261 1.28542,-1.07126 2,-1.5 0.12723,-0.0763 2.38925,0 2.5,0 1.16667,0 2.33333,0 3.5,0 0.5,0 1.00971,-0.0981 1.5,0 0.51681,0.10336 1,0.33333 1.5,0.5 0.5,0.16666 1.02859,0.26429 1.5,0.5 0.21082,0.1054 0.27133,0.44283 0.5,0.5 0.48507,0.12126 1.03576,-0.1857 1.5,0 0.43769,0.17507 0.56231,0.82492 1,1 0.46424,0.18569 1.01493,-0.12127 1.5,0 0.22866,0.0572 0.27639,0.42546 0.5,0.5 0.31623,0.1054 0.66667,0 1,0 0.33333,0 0.66667,0 1,0 1,0 2,0 3,0 0.83333,0 1.66667,0 2.5,0 0.66667,0 1.34003,0.0943 2,0 0.52175,-0.0745 0.98012,-0.41336 1.5,-0.5 0.4932,-0.0822 1,0 1.5,0 0.16667,0 0.33831,0.0404 0.5,0 0.51131,-0.12783 0.98869,-0.37218 1.5,-0.5 0.42603,-0.10651 1.05917,0 1.5,0 1.5,0 3,0 4.5,0"
           style="fill:none;stroke:#000000;stroke-width:1px;stroke-linecap:butt;stroke-linejoin:miter;stroke-opacity:1" />
        <path
           style="fill:none;stroke:#000000;stroke-width:1px;stroke-linecap:butt;stroke-linejoin:miter;stroke-opacity:1"
           d="m 159,347.86219 c 0.66667,-0.16667 1.32616,-0.36524 2,-0.5 1.06315,-0.21264 -0.075,0.54999 1.5,-0.5 1.14415,-0.76277 -0.31265,-0.39579 1.5,-1 0.15811,-0.0527 0.34189,0.0527 0.5,0 0.35355,-0.11786 0.63845,-0.40962 1,-0.5 0.33837,-0.0846 3.17825,0 3.5,0 2.83333,0 5.66667,0 8.5,0 1.66667,0 3.33333,0 5,0 0.5,0 1,0 1.5,0 0.16667,0 0.36132,-0.0924 0.5,0 0.39223,0.26148 0.59577,0.75746 1,1 2.15706,1.29423 0.75739,0.0643 2.5,0.5 0.36155,0.0904 0.64645,0.38214 1,0.5 0.31623,0.1054 0.66667,0 1,0 0.66667,0 1.33333,0 2,0 8,0 16,0 24,0 2,0 4,0 6,0 0.83333,0 1.66667,0 2.5,0 0.66667,0 1.37578,0.23408 2,0 0.78027,-0.29261 1.28542,-1.07126 2,-1.5 0.12723,-0.0763 2.38925,0 2.5,0 1.16667,0 2.33333,0 3.5,0 0.5,0 1.00971,-0.0981 1.5,0 0.51681,0.10336 1,0.33333 1.5,0.5 0.5,0.16666 1.02859,0.26429 1.5,0.5 0.21082,0.1054 0.27133,0.44283 0.5,0.5 0.48507,0.12126 1.03576,-0.1857 1.5,0 0.43769,0.17507 0.56231,0.82492 1,1 0.46424,0.18569 1.01493,-0.12127 1.5,0 0.22866,0.0572 0.27639,0.42546 0.5,0.5 0.31623,0.1054 0.66667,0 1,0 0.33333,0 0.66667,0 1,0 1,0 2,0 3,0 0.83333,0 1.66667,0 2.5,0 0.66667,0 1.34003,0.0943 2,0 0.52175,-0.0745 0.98012,-0.41336 1.5,-0.5 0.4932,-0.0822 1,0 1.5,0 0.16667,0 0.33831,0.0404 0.5,0 0.51131,-0.12783 0.98869,-0.37218 1.5,-0.5 0.42603,-0.10651 1.05917,0 1.5,0 1.5,0 3,0 4.5,0"
           id="path3850"
           inkscape:connector-curvature="0" />
      </g>
      <g
         id="g3852"
         transform="translate(0,96)">
        <path
           style="fill:none;stroke:#000000;stroke-width:1px;stroke-linecap:butt;stroke-linejoin:miter;stroke-opacity:1"
           d="m 159,339.86219 c 0.66667,-0.16667 1.32616,-0.36524 2,-0.5 1.06315,-0.21264 -0.075,0.54999 1.5,-0.5 1.14415,-0.76277 -0.31265,-0.39579 1.5,-1 0.15811,-0.0527 0.34189,0.0527 0.5,0 0.35355,-0.11786 0.63845,-0.40962 1,-0.5 0.33837,-0.0846 3.17825,0 3.5,0 2.83333,0 5.66667,0 8.5,0 1.66667,0 3.33333,0 5,0 0.5,0 1,0 1.5,0 0.16667,0 0.36132,-0.0924 0.5,0 0.39223,0.26148 0.59577,0.75746 1,1 2.15706,1.29423 0.75739,0.0643 2.5,0.5 0.36155,0.0904 0.64645,0.38214 1,0.5 0.31623,0.1054 0.66667,0 1,0 0.66667,0 1.33333,0 2,0 8,0 16,0 24,0 2,0 4,0 6,0 0.83333,0 1.66667,0 2.5,0 0.66667,0 1.37578,0.23408 2,0 0.78027,-0.29261 1.28542,-1.07126 2,-1.5 0.12723,-0.0763 2.38925,0 2.5,0 1.16667,0 2.33333,0 3.5,0 0.5,0 1.00971,-0.0981 1.5,0 0.51681,0.10336 1,0.33333 1.5,0.5 0.5,0.16666 1.02859,0.26429 1.5,0.5 0.21082,0.1054 0.27133,0.44283 0.5,0.5 0.48507,0.12126 1.03576,-0.1857 1.5,0 0.43769,0.17507 0.56231,0.82492 1,1 0.46424,0.18569 1.01493,-0.12127 1.5,0 0.22866,0.0572 0.27639,0.42546 0.5,0.5 0.31623,0.1054 0.66667,0 1,0 0.33333,0 0.66667,0 1,0 1,0 2,0 3,0 0.83333,0 1.66667,0 2.5,0 0.66667,0 1.34003,0.0943 2,0 0.52175,-0.0745 0.98012,-0.41336 1.5,-0.5 0.4932,-0.0822 1,0 1.5,0 0.16667,0 0.33831,0.0404 0.5,0 0.51131,-0.12783 0.98869,-0.37218 1.5,-0.5 0.42603,-0.10651 1.05917,0 1.5,0 1.5,0 3,0 4.5,0"
           id="path3854"
           inkscape:connector-curvature="0" />
        <path
           inkscape:connector-curvature="0"
           id="path3856"
           d="m 159,347.86219 c 0.66667,-0.16667 1.32616,-0.36524 2,-0.5 1.06315,-0.21264 -0.075,0.54999 1.5,-0.5 1.14415,-0.76277 -0.31265,-0.39579 1.5,-1 0.15811,-0.0527 0.34189,0.0527 0.5,0 0.35355,-0.11786 0.63845,-0.40962 1,-0.5 0.33837,-0.0846 3.17825,0 3.5,0 2.83333,0 5.66667,0 8.5,0 1.66667,0 3.33333,0 5,0 0.5,0 1,0 1.5,0 0.16667,0 0.36132,-0.0924 0.5,0 0.39223,0.26148 0.59577,0.75746 1,1 2.15706,1.29423 0.75739,0.0643 2.5,0.5 0.36155,0.0904 0.64645,0.38214 1,0.5 0.31623,0.1054 0.66667,0 1,0 0.66667,0 1.33333,0 2,0 8,0 16,0 24,0 2,0 4,0 6,0 0.83333,0 1.66667,0 2.5,0 0.66667,0 1.37578,0.23408 2,0 0.78027,-0.29261 1.28542,-1.07126 2,-1.5 0.12723,-0.0763 2.38925,0 2.5,0 1.16667,0 2.33333,0 3.5,0 0.5,0 1.00971,-0.0981 1.5,0 0.51681,0.10336 1,0.33333 1.5,0.5 0.5,0.16666 1.02859,0.26429 1.5,0.5 0.21082,0.1054 0.27133,0.44283 0.5,0.5 0.48507,0.12126 1.03576,-0.1857 1.5,0 0.43769,0.17507 0.56231,0.82492 1,1 0.46424,0.18569 1.01493,-0.12127 1.5,0 0.22866,0.0572 0.27639,0.42546 0.5,0.5 0.31623,0.1054 0.66667,0 1,0 0.33333,0 0.66667,0 1,0 1,0 2,0 3,0 0.83333,0 1.66667,0 2.5,0 0.66667,0 1.34003,0.0943 2,0 0.52175,-0.0745 0.98012,-0.41336 1.5,-0.5 0.4932,-0.0822 1,0 1.5,0 0.16667,0 0.33831,0.0404 0.5,0 0.51131,-0.12783 0.98869,-0.37218 1.5,-0.5 0.42603,-0.10651 1.05917,0 1.5,0 1.5,0 3,0 4.5,0"
           style="fill:none;stroke:#000000;stroke-width:1px;stroke-linecap:butt;stroke-linejoin:miter;stroke-opacity:1" />
      </g>
      <g
         transform="translate(0,112)"
         id="g3858">
        <path
           inkscape:connector-curvature="0"
           id="path3860"
           d="m 159,339.86219 c 0.66667,-0.16667 1.32616,-0.36524 2,-0.5 1.06315,-0.21264 -0.075,0.54999 1.5,-0.5 1.14415,-0.76277 -0.31265,-0.39579 1.5,-1 0.15811,-0.0527 0.34189,0.0527 0.5,0 0.35355,-0.11786 0.63845,-0.40962 1,-0.5 0.33837,-0.0846 3.17825,0 3.5,0 2.83333,0 5.66667,0 8.5,0 1.66667,0 3.33333,0 5,0 0.5,0 1,0 1.5,0 0.16667,0 0.36132,-0.0924 0.5,0 0.39223,0.26148 0.59577,0.75746 1,1 2.15706,1.29423 0.75739,0.0643 2.5,0.5 0.36155,0.0904 0.64645,0.38214 1,0.5 0.31623,0.1054 0.66667,0 1,0 0.66667,0 1.33333,0 2,0 8,0 16,0 24,0 2,0 4,0 6,0 0.83333,0 1.66667,0 2.5,0 0.66667,0 1.37578,0.23408 2,0 0.78027,-0.29261 1.28542,-1.07126 2,-1.5 0.12723,-0.0763 2.38925,0 2.5,0 1.16667,0 2.33333,0 3.5,0 0.5,0 1.00971,-0.0981 1.5,0 0.51681,0.10336 1,0.33333 1.5,0.5 0.5,0.16666 1.02859,0.26429 1.5,0.5 0.21082,0.1054 0.27133,0.44283 0.5,0.5 0.48507,0.12126 1.03576,-0.1857 1.5,0 0.43769,0.17507 0.56231,0.82492 1,1 0.46424,0.18569 1.01493,-0.12127 1.5,0 0.22866,0.0572 0.27639,0.42546 0.5,0.5 0.31623,0.1054 0.66667,0 1,0 0.33333,0 0.66667,0 1,0 1,0 2,0 3,0 0.83333,0 1.66667,0 2.5,0 0.66667,0 1.34003,0.0943 2,0 0.52175,-0.0745 0.98012,-0.41336 1.5,-0.5 0.4932,-0.0822 1,0 1.5,0 0.16667,0 0.33831,0.0404 0.5,0 0.51131,-0.12783 0.98869,-0.37218 1.5,-0.5 0.42603,-0.10651 1.05917,0 1.5,0 1.5,0 3,0 4.5,0"
           style="fill:none;stroke:#000000;stroke-width:1px;stroke-linecap:butt;stroke-linejoin:miter;stroke-opacity:1" />
        <path
           style="fill:none;stroke:#000000;stroke-width:1px;stroke-linecap:butt;stroke-linejoin:miter;stroke-opacity:1"
           d="m 159,347.86219 c 0.66667,-0.16667 1.32616,-0.36524 2,-0.5 1.06315,-0.21264 -0.075,0.54999 1.5,-0.5 1.14415,-0.76277 -0.31265,-0.39579 1.5,-1 0.15811,-0.0527 0.34189,0.0527 0.5,0 0.35355,-0.11786 0.63845,-0.40962 1,-0.5 0.33837,-0.0846 3.17825,0 3.5,0 2.83333,0 5.66667,0 8.5,0 1.66667,0 3.33333,0 5,0 0.5,0 1,0 1.5,0 0.16667,0 0.36132,-0.0924 0.5,0 0.39223,0.26148 0.59577,0.75746 1,1 2.15706,1.29423 0.75739,0.0643 2.5,0.5 0.36155,0.0904 0.64645,0.38214 1,0.5 0.31623,0.1054 0.66667,0 1,0 0.66667,0 1.33333,0 2,0 8,0 16,0 24,0 2,0 4,0 6,0 0.83333,0 1.66667,0 2.5,0 0.66667,0 1.37578,0.23408 2,0 0.78027,-0.29261 1.28542,-1.07126 2,-1.5 0.12723,-0.0763 2.38925,0 2.5,0 1.16667,0 2.33333,0 3.5,0 0.5,0 1.00971,-0.0981 1.5,0 0.51681,0.10336 1,0.33333 1.5,0.5 0.5,0.16666 1.02859,0.26429 1.5,0.5 0.21082,0.1054 0.27133,0.44283 0.5,0.5 0.48507,0.12126 1.03576,-0.1857 1.5,0 0.43769,0.17507 0.56231,0.82492 1,1 0.46424,0.18569 1.01493,-0.12127 1.5,0 0.22866,0.0572 0.27639,0.42546 0.5,0.5 0.31623,0.1054 0.66667,0 1,0 0.33333,0 0.66667,0 1,0 1,0 2,0 3,0 0.83333,0 1.66667,0 2.5,0 0.66667,0 1.34003,0.0943 2,0 0.52175,-0.0745 0.98012,-0.41336 1.5,-0.5 0.4932,-0.0822 1,0 1.5,0 0.16667,0 0.33831,0.0404 0.5,0 0.51131,-0.12783 0.98869,-0.37218 1.5,-0.5 0.42603,-0.10651 1.05917,0 1.5,0 1.5,0 3,0 4.5,0"
           id="path3862"
           inkscape:connector-curvature="0" />
      </g>
      <g
         id="g3864"
         transform="translate(0,128)">
        <path
           style="fill:none;stroke:#000000;stroke-width:1px;stroke-linecap:butt;stroke-linejoin:miter;stroke-opacity:1"
           d="m 159,339.86219 c 0.66667,-0.16667 1.32616,-0.36524 2,-0.5 1.06315,-0.21264 -0.075,0.54999 1.5,-0.5 1.14415,-0.76277 -0.31265,-0.39579 1.5,-1 0.15811,-0.0527 0.34189,0.0527 0.5,0 0.35355,-0.11786 0.63845,-0.40962 1,-0.5 0.33837,-0.0846 3.17825,0 3.5,0 2.83333,0 5.66667,0 8.5,0 1.66667,0 3.33333,0 5,0 0.5,0 1,0 1.5,0 0.16667,0 0.36132,-0.0924 0.5,0 0.39223,0.26148 0.59577,0.75746 1,1 2.15706,1.29423 0.75739,0.0643 2.5,0.5 0.36155,0.0904 0.64645,0.38214 1,0.5 0.31623,0.1054 0.66667,0 1,0 0.66667,0 1.33333,0 2,0 8,0 16,0 24,0 2,0 4,0 6,0 0.83333,0 1.66667,0 2.5,0 0.66667,0 1.37578,0.23408 2,0 0.78027,-0.29261 1.28542,-1.07126 2,-1.5 0.12723,-0.0763 2.38925,0 2.5,0 1.16667,0 2.33333,0 3.5,0 0.5,0 1.00971,-0.0981 1.5,0 0.51681,0.10336 1,0.33333 1.5,0.5 0.5,0.16666 1.02859,0.26429 1.5,0.5 0.21082,0.1054 0.27133,0.44283 0.5,0.5 0.48507,0.12126 1.03576,-0.1857 1.5,0 0.43769,0.17507 0.56231,0.82492 1,1 0.46424,0.18569 1.01493,-0.12127 1.5,0 0.22866,0.0572 0.27639,0.42546 0.5,0.5 0.31623,0.1054 0.66667,0 1,0 0.33333,0 0.66667,0 1,0 1,0 2,0 3,0 0.83333,0 1.66667,0 2.5,0 0.66667,0 1.34003,0.0943 2,0 0.52175,-0.0745 0.98012,-0.41336 1.5,-0.5 0.4932,-0.0822 1,0 1.5,0 0.16667,0 0.33831,0.0404 0.5,0 0.51131,-0.12783 0.98869,-0.37218 1.5,-0.5 0.42603,-0.10651 1.05917,0 1.5,0 1.5,0 3,0 4.5,0"
           id="path3866"
           inkscape:connector-curvature="0" />
        <path
           inkscape:connector-curvature="0"
           id="path3868"
           d="m 159,347.86219 c 0.66667,-0.16667 1.32616,-0.36524 2,-0.5 1.06315,-0.21264 -0.075,0.54999 1.5,-0.5 1.14415,-0.76277 -0.31265,-0.39579 1.5,-1 0.15811,-0.0527 0.34189,0.0527 0.5,0 0.35355,-0.11786 0.63845,-0.40962 1,-0.5 0.33837,-0.0846 3.17825,0 3.5,0 2.83333,0 5.66667,0 8.5,0 1.66667,0 3.33333,0 5,0 0.5,0 1,0 1.5,0 0.16667,0 0.36132,-0.0924 0.5,0 0.39223,0.26148 0.59577,0.75746 1,1 2.15706,1.29423 0.75739,0.0643 2.5,0.5 0.36155,0.0904 0.64645,0.38214 1,0.5 0.31623,0.1054 0.66667,0 1,0 0.66667,0 1.33333,0 2,0 8,0 16,0 24,0 2,0 4,0 6,0 0.83333,0 1.66667,0 2.5,0 0.66667,0 1.37578,0.23408 2,0 0.78027,-0.29261 1.28542,-1.07126 2,-1.5 0.12723,-0.0763 2.38925,0 2.5,0 1.16667,0 2.33333,0 3.5,0 0.5,0 1.00971,-0.0981 1.5,0 0.51681,0.10336 1,0.33333 1.5,0.5 0.5,0.16666 1.02859,0.26429 1.5,0.5 0.21082,0.1054 0.27133,0.44283 0.5,0.5 0.48507,0.12126 1.03576,-0.1857 1.5,0 0.43769,0.17507 0.56231,0.82492 1,1 0.46424,0.18569 1.01493,-0.12127 1.5,0 0.22866,0.0572 0.27639,0.42546 0.5,0.5 0.31623,0.1054 0.66667,0 1,0 0.33333,0 0.66667,0 1,0 1,0 2,0 3,0 0.83333,0 1.66667,0 2.5,0 0.66667,0 1.34003,0.0943 2,0 0.52175,-0.0745 0.98012,-0.41336 1.5,-0.5 0.4932,-0.0822 1,0 1.5,0 0.16667,0 0.33831,0.0404 0.5,0 0.51131,-0.12783 0.98869,-0.37218 1.5,-0.5 0.42603,-0.10651 1.05917,0 1.5,0 1.5,0 3,0 4.5,0"
           style="fill:none;stroke:#000000;stroke-width:1px;stroke-linecap:butt;stroke-linejoin:miter;stroke-opacity:1" />
      </g>
      <g
         transform="translate(0,144)"
         id="g3870">
        <path
           inkscape:connector-curvature="0"
           id="path3872"
           d="m 159,339.86219 c 0.66667,-0.16667 1.32616,-0.36524 2,-0.5 1.06315,-0.21264 -0.075,0.54999 1.5,-0.5 1.14415,-0.76277 -0.31265,-0.39579 1.5,-1 0.15811,-0.0527 0.34189,0.0527 0.5,0 0.35355,-0.11786 0.63845,-0.40962 1,-0.5 0.33837,-0.0846 3.17825,0 3.5,0 2.83333,0 5.66667,0 8.5,0 1.66667,0 3.33333,0 5,0 0.5,0 1,0 1.5,0 0.16667,0 0.36132,-0.0924 0.5,0 0.39223,0.26148 0.59577,0.75746 1,1 2.15706,1.29423 0.75739,0.0643 2.5,0.5 0.36155,0.0904 0.64645,0.38214 1,0.5 0.31623,0.1054 0.66667,0 1,0 0.66667,0 1.33333,0 2,0 8,0 16,0 24,0 2,0 4,0 6,0 0.83333,0 1.66667,0 2.5,0 0.66667,0 1.37578,0.23408 2,0 0.78027,-0.29261 1.28542,-1.07126 2,-1.5 0.12723,-0.0763 2.38925,0 2.5,0 1.16667,0 2.33333,0 3.5,0 0.5,0 1.00971,-0.0981 1.5,0 0.51681,0.10336 1,0.33333 1.5,0.5 0.5,0.16666 1.02859,0.26429 1.5,0.5 0.21082,0.1054 0.27133,0.44283 0.5,0.5 0.48507,0.12126 1.03576,-0.1857 1.5,0 0.43769,0.17507 0.56231,0.82492 1,1 0.46424,0.18569 1.01493,-0.12127 1.5,0 0.22866,0.0572 0.27639,0.42546 0.5,0.5 0.31623,0.1054 0.66667,0 1,0 0.33333,0 0.66667,0 1,0 1,0 2,0 3,0 0.83333,0 1.66667,0 2.5,0 0.66667,0 1.34003,0.0943 2,0 0.52175,-0.0745 0.98012,-0.41336 1.5,-0.5 0.4932,-0.0822 1,0 1.5,0 0.16667,0 0.33831,0.0404 0.5,0 0.51131,-0.12783 0.98869,-0.37218 1.5,-0.5 0.42603,-0.10651 1.05917,0 1.5,0 1.5,0 3,0 4.5,0"
           style="fill:none;stroke:#000000;stroke-width:1px;stroke-linecap:butt;stroke-linejoin:miter;stroke-opacity:1" />
        <path
           style="fill:none;stroke:#000000;stroke-width:1px;stroke-linecap:butt;stroke-linejoin:miter;stroke-opacity:1"
           d="m 159,347.86219 c 0.66667,-0.16667 1.32616,-0.36524 2,-0.5 1.06315,-0.21264 -0.075,0.54999 1.5,-0.5 1.14415,-0.76277 -0.31265,-0.39579 1.5,-1 0.15811,-0.0527 0.34189,0.0527 0.5,0 0.35355,-0.11786 0.63845,-0.40962 1,-0.5 0.33837,-0.0846 3.17825,0 3.5,0 2.83333,0 5.66667,0 8.5,0 1.66667,0 3.33333,0 5,0 0.5,0 1,0 1.5,0 0.16667,0 0.36132,-0.0924 0.5,0 0.39223,0.26148 0.59577,0.75746 1,1 2.15706,1.29423 0.75739,0.0643 2.5,0.5 0.36155,0.0904 0.64645,0.38214 1,0.5 0.31623,0.1054 0.66667,0 1,0 0.66667,0 1.33333,0 2,0 8,0 16,0 24,0 2,0 4,0 6,0 0.83333,0 1.66667,0 2.5,0 0.66667,0 1.37578,0.23408 2,0 0.78027,-0.29261 1.28542,-1.07126 2,-1.5 0.12723,-0.0763 2.38925,0 2.5,0 1.16667,0 2.33333,0 3.5,0 0.5,0 1.00971,-0.0981 1.5,0 0.51681,0.10336 1,0.33333 1.5,0.5 0.5,0.16666 1.02859,0.26429 1.5,0.5 0.21082,0.1054 0.27133,0.44283 0.5,0.5 0.48507,0.12126 1.03576,-0.1857 1.5,0 0.43769,0.17507 0.56231,0.82492 1,1 0.46424,0.18569 1.01493,-0.12127 1.5,0 0.22866,0.0572 0.27639,0.42546 0.5,0.5 0.31623,0.1054 0.66667,0 1,0 0.33333,0 0.66667,0 1,0 1,0 2,0 3,0 0.83333,0 1.66667,0 2.5,0 0.66667,0 1.34003,0.0943 2,0 0.52175,-0.0745 0.98012,-0.41336 1.5,-0.5 0.4932,-0.0822 1,0 1.5,0 0.16667,0 0.33831,0.0404 0.5,0 0.51131,-0.12783 0.98869,-0.37218 1.5,-0.5 0.42603,-0.10651 1.05917,0 1.5,0 1.5,0 3,0 4.5,0"
           id="path3874"
           inkscape:connector-curvature="0" />
      </g>
      <g
         id="g3876"
         transform="translate(0,160)">
        <path
           style="fill:none;stroke:#000000;stroke-width:1px;stroke-linecap:butt;stroke-linejoin:miter;stroke-opacity:1"
           d="m 159,339.86219 c 0.66667,-0.16667 1.32616,-0.36524 2,-0.5 1.06315,-0.21264 -0.075,0.54999 1.5,-0.5 1.14415,-0.76277 -0.31265,-0.39579 1.5,-1 0.15811,-0.0527 0.34189,0.0527 0.5,0 0.35355,-0.11786 0.63845,-0.40962 1,-0.5 0.33837,-0.0846 3.17825,0 3.5,0 2.83333,0 5.66667,0 8.5,0 1.66667,0 3.33333,0 5,0 0.5,0 1,0 1.5,0 0.16667,0 0.36132,-0.0924 0.5,0 0.39223,0.26148 0.59577,0.75746 1,1 2.15706,1.29423 0.75739,0.0643 2.5,0.5 0.36155,0.0904 0.64645,0.38214 1,0.5 0.31623,0.1054 0.66667,0 1,0 0.66667,0 1.33333,0 2,0 8,0 16,0 24,0 2,0 4,0 6,0 0.83333,0 1.66667,0 2.5,0 0.66667,0 1.37578,0.23408 2,0 0.78027,-0.29261 1.28542,-1.07126 2,-1.5 0.12723,-0.0763 2.38925,0 2.5,0 1.16667,0 2.33333,0 3.5,0 0.5,0 1.00971,-0.0981 1.5,0 0.51681,0.10336 1,0.33333 1.5,0.5 0.5,0.16666 1.02859,0.26429 1.5,0.5 0.21082,0.1054 0.27133,0.44283 0.5,0.5 0.48507,0.12126 1.03576,-0.1857 1.5,0 0.43769,0.17507 0.56231,0.82492 1,1 0.46424,0.18569 1.01493,-0.12127 1.5,0 0.22866,0.0572 0.27639,0.42546 0.5,0.5 0.31623,0.1054 0.66667,0 1,0 0.33333,0 0.66667,0 1,0 1,0 2,0 3,0 0.83333,0 1.66667,0 2.5,0 0.66667,0 1.34003,0.0943 2,0 0.52175,-0.0745 0.98012,-0.41336 1.5,-0.5 0.4932,-0.0822 1,0 1.5,0 0.16667,0 0.33831,0.0404 0.5,0 0.51131,-0.12783 0.98869,-0.37218 1.5,-0.5 0.42603,-0.10651 1.05917,0 1.5,0 1.5,0 3,0 4.5,0"
           id="path3878"
           inkscape:connector-curvature="0" />
        <path
           inkscape:connector-curvature="0"
           id="path3880"
           d="m 159,347.86219 c 0.66667,-0.16667 1.32616,-0.36524 2,-0.5 1.06315,-0.21264 -0.075,0.54999 1.5,-0.5 1.14415,-0.76277 -0.31265,-0.39579 1.5,-1 0.15811,-0.0527 0.34189,0.0527 0.5,0 0.35355,-0.11786 0.63845,-0.40962 1,-0.5 0.33837,-0.0846 3.17825,0 3.5,0 2.83333,0 5.66667,0 8.5,0 1.66667,0 3.33333,0 5,0 0.5,0 1,0 1.5,0 0.16667,0 0.36132,-0.0924 0.5,0 0.39223,0.26148 0.59577,0.75746 1,1 2.15706,1.29423 0.75739,0.0643 2.5,0.5 0.36155,0.0904 0.64645,0.38214 1,0.5 0.31623,0.1054 0.66667,0 1,0 0.66667,0 1.33333,0 2,0 8,0 16,0 24,0 2,0 4,0 6,0 0.83333,0 1.66667,0 2.5,0 0.66667,0 1.37578,0.23408 2,0 0.78027,-0.29261 1.28542,-1.07126 2,-1.5 0.12723,-0.0763 2.38925,0 2.5,0 1.16667,0 2.33333,0 3.5,0 0.5,0 1.00971,-0.0981 1.5,0 0.51681,0.10336 1,0.33333 1.5,0.5 0.5,0.16666 1.02859,0.26429 1.5,0.5 0.21082,0.1054 0.27133,0.44283 0.5,0.5 0.48507,0.12126 1.03576,-0.1857 1.5,0 0.43769,0.17507 0.56231,0.82492 1,1 0.46424,0.18569 1.01493,-0.12127 1.5,0 0.22866,0.0572 0.27639,0.42546 0.5,0.5 0.31623,0.1054 0.66667,0 1,0 0.33333,0 0.66667,0 1,0 1,0 2,0 3,0 0.83333,0 1.66667,0 2.5,0 0.66667,0 1.34003,0.0943 2,0 0.52175,-0.0745 0.98012,-0.41336 1.5,-0.5 0.4932,-0.0822 1,0 1.5,0 0.16667,0 0.33831,0.0404 0.5,0 0.51131,-0.12783 0.98869,-0.37218 1.5,-0.5 0.42603,-0.10651 1.05917,0 1.5,0 1.5,0 3,0 4.5,0"
           style="fill:none;stroke:#000000;stroke-width:1px;stroke-linecap:butt;stroke-linejoin:miter;stroke-opacity:1" />
      </g>
      <g
         transform="translate(0,176)"
         id="g3882">
        <path
           inkscape:connector-curvature="0"
           id="path3884"
           d="m 159,339.86219 c 0.66667,-0.16667 1.32616,-0.36524 2,-0.5 1.06315,-0.21264 -0.075,0.54999 1.5,-0.5 1.14415,-0.76277 -0.31265,-0.39579 1.5,-1 0.15811,-0.0527 0.34189,0.0527 0.5,0 0.35355,-0.11786 0.63845,-0.40962 1,-0.5 0.33837,-0.0846 3.17825,0 3.5,0 2.83333,0 5.66667,0 8.5,0 1.66667,0 3.33333,0 5,0 0.5,0 1,0 1.5,0 0.16667,0 0.36132,-0.0924 0.5,0 0.39223,0.26148 0.59577,0.75746 1,1 2.15706,1.29423 0.75739,0.0643 2.5,0.5 0.36155,0.0904 0.64645,0.38214 1,0.5 0.31623,0.1054 0.66667,0 1,0 0.66667,0 1.33333,0 2,0 8,0 16,0 24,0 2,0 4,0 6,0 0.83333,0 1.66667,0 2.5,0 0.66667,0 1.37578,0.23408 2,0 0.78027,-0.29261 1.28542,-1.07126 2,-1.5 0.12723,-0.0763 2.38925,0 2.5,0 1.16667,0 2.33333,0 3.5,0 0.5,0 1.00971,-0.0981 1.5,0 0.51681,0.10336 1,0.33333 1.5,0.5 0.5,0.16666 1.02859,0.26429 1.5,0.5 0.21082,0.1054 0.27133,0.44283 0.5,0.5 0.48507,0.12126 1.03576,-0.1857 1.5,0 0.43769,0.17507 0.56231,0.82492 1,1 0.46424,0.18569 1.01493,-0.12127 1.5,0 0.22866,0.0572 0.27639,0.42546 0.5,0.5 0.31623,0.1054 0.66667,0 1,0 0.33333,0 0.66667,0 1,0 1,0 2,0 3,0 0.83333,0 1.66667,0 2.5,0 0.66667,0 1.34003,0.0943 2,0 0.52175,-0.0745 0.98012,-0.41336 1.5,-0.5 0.4932,-0.0822 1,0 1.5,0 0.16667,0 0.33831,0.0404 0.5,0 0.51131,-0.12783 0.98869,-0.37218 1.5,-0.5 0.42603,-0.10651 1.05917,0 1.5,0 1.5,0 3,0 4.5,0"
           style="fill:none;stroke:#000000;stroke-width:1px;stroke-linecap:butt;stroke-linejoin:miter;stroke-opacity:1" />
        <path
           style="fill:none;stroke:#000000;stroke-width:1px;stroke-linecap:butt;stroke-linejoin:miter;stroke-opacity:1"
           d="m 159,347.86219 c 0.66667,-0.16667 1.32616,-0.36524 2,-0.5 1.06315,-0.21264 -0.075,0.54999 1.5,-0.5 1.14415,-0.76277 -0.31265,-0.39579 1.5,-1 0.15811,-0.0527 0.34189,0.0527 0.5,0 0.35355,-0.11786 0.63845,-0.40962 1,-0.5 0.33837,-0.0846 3.17825,0 3.5,0 2.83333,0 5.66667,0 8.5,0 1.66667,0 3.33333,0 5,0 0.5,0 1,0 1.5,0 0.16667,0 0.36132,-0.0924 0.5,0 0.39223,0.26148 0.59577,0.75746 1,1 2.15706,1.29423 0.75739,0.0643 2.5,0.5 0.36155,0.0904 0.64645,0.38214 1,0.5 0.31623,0.1054 0.66667,0 1,0 0.66667,0 1.33333,0 2,0 8,0 16,0 24,0 2,0 4,0 6,0 0.83333,0 1.66667,0 2.5,0 0.66667,0 1.37578,0.23408 2,0 0.78027,-0.29261 1.28542,-1.07126 2,-1.5 0.12723,-0.0763 2.38925,0 2.5,0 1.16667,0 2.33333,0 3.5,0 0.5,0 1.00971,-0.0981 1.5,0 0.51681,0.10336 1,0.33333 1.5,0.5 0.5,0.16666 1.02859,0.26429 1.5,0.5 0.21082,0.1054 0.27133,0.44283 0.5,0.5 0.48507,0.12126 1.03576,-0.1857 1.5,0 0.43769,0.17507 0.56231,0.82492 1,1 0.46424,0.18569 1.01493,-0.12127 1.5,0 0.22866,0.0572 0.27639,0.42546 0.5,0.5 0.31623,0.1054 0.66667,0 1,0 0.33333,0 0.66667,0 1,0 1,0 2,0 3,0 0.83333,0 1.66667,0 2.5,0 0.66667,0 1.34003,0.0943 2,0 0.52175,-0.0745 0.98012,-0.41336 1.5,-0.5 0.4932,-0.0822 1,0 1.5,0 0.16667,0 0.33831,0.0404 0.5,0 0.51131,-0.12783 0.98869,-0.37218 1.5,-0.5 0.42603,-0.10651 1.05917,0 1.5,0 1.5,0 3,0 4.5,0"
           id="path3886"
           inkscape:connector-curvature="0" />
      </g>
      <g
         id="g3888"
         transform="translate(0,176)">
        <path
           style="fill:none;stroke:#000000;stroke-width:1px;stroke-linecap:butt;stroke-linejoin:miter;stroke-opacity:1"
           d="m 159,339.86219 c 0.66667,-0.16667 1.32616,-0.36524 2,-0.5 1.06315,-0.21264 -0.075,0.54999 1.5,-0.5 1.14415,-0.76277 -0.31265,-0.39579 1.5,-1 0.15811,-0.0527 0.34189,0.0527 0.5,0 0.35355,-0.11786 0.63845,-0.40962 1,-0.5 0.33837,-0.0846 3.17825,0 3.5,0 2.83333,0 5.66667,0 8.5,0 1.66667,0 3.33333,0 5,0 0.5,0 1,0 1.5,0 0.16667,0 0.36132,-0.0924 0.5,0 0.39223,0.26148 0.59577,0.75746 1,1 2.15706,1.29423 0.75739,0.0643 2.5,0.5 0.36155,0.0904 0.64645,0.38214 1,0.5 0.31623,0.1054 0.66667,0 1,0 0.66667,0 1.33333,0 2,0 8,0 16,0 24,0 2,0 4,0 6,0 0.83333,0 1.66667,0 2.5,0 0.66667,0 1.37578,0.23408 2,0 0.78027,-0.29261 1.28542,-1.07126 2,-1.5 0.12723,-0.0763 2.38925,0 2.5,0 1.16667,0 2.33333,0 3.5,0 0.5,0 1.00971,-0.0981 1.5,0 0.51681,0.10336 1,0.33333 1.5,0.5 0.5,0.16666 1.02859,0.26429 1.5,0.5 0.21082,0.1054 0.27133,0.44283 0.5,0.5 0.48507,0.12126 1.03576,-0.1857 1.5,0 0.43769,0.17507 0.56231,0.82492 1,1 0.46424,0.18569 1.01493,-0.12127 1.5,0 0.22866,0.0572 0.27639,0.42546 0.5,0.5 0.31623,0.1054 0.66667,0 1,0 0.33333,0 0.66667,0 1,0 1,0 2,0 3,0 0.83333,0 1.66667,0 2.5,0 0.66667,0 1.34003,0.0943 2,0 0.52175,-0.0745 0.98012,-0.41336 1.5,-0.5 0.4932,-0.0822 1,0 1.5,0 0.16667,0 0.33831,0.0404 0.5,0 0.51131,-0.12783 0.98869,-0.37218 1.5,-0.5 0.42603,-0.10651 1.05917,0 1.5,0 1.5,0 3,0 4.5,0"
           id="path3890"
           inkscape:connector-curvature="0" />
        <path
           inkscape:connector-curvature="0"
           id="path3892"
           d="m 159,347.86219 c 0.66667,-0.16667 1.32616,-0.36524 2,-0.5 1.06315,-0.21264 -0.075,0.54999 1.5,-0.5 1.14415,-0.76277 -0.31265,-0.39579 1.5,-1 0.15811,-0.0527 0.34189,0.0527 0.5,0 0.35355,-0.11786 0.63845,-0.40962 1,-0.5 0.33837,-0.0846 3.17825,0 3.5,0 2.83333,0 5.66667,0 8.5,0 1.66667,0 3.33333,0 5,0 0.5,0 1,0 1.5,0 0.16667,0 0.36132,-0.0924 0.5,0 0.39223,0.26148 0.59577,0.75746 1,1 2.15706,1.29423 0.75739,0.0643 2.5,0.5 0.36155,0.0904 0.64645,0.38214 1,0.5 0.31623,0.1054 0.66667,0 1,0 0.66667,0 1.33333,0 2,0 8,0 16,0 24,0 2,0 4,0 6,0 0.83333,0 1.66667,0 2.5,0 0.66667,0 1.37578,0.23408 2,0 0.78027,-0.29261 1.28542,-1.07126 2,-1.5 0.12723,-0.0763 2.38925,0 2.5,0 1.16667,0 2.33333,0 3.5,0 0.5,0 1.00971,-0.0981 1.5,0 0.51681,0.10336 1,0.33333 1.5,0.5 0.5,0.16666 1.02859,0.26429 1.5,0.5 0.21082,0.1054 0.27133,0.44283 0.5,0.5 0.48507,0.12126 1.03576,-0.1857 1.5,0 0.43769,0.17507 0.56231,0.82492 1,1 0.46424,0.18569 1.01493,-0.12127 1.5,0 0.22866,0.0572 0.27639,0.42546 0.5,0.5 0.31623,0.1054 0.66667,0 1,0 0.33333,0 0.66667,0 1,0 1,0 2,0 3,0 0.83333,0 1.66667,0 2.5,0 0.66667,0 1.34003,0.0943 2,0 0.52175,-0.0745 0.98012,-0.41336 1.5,-0.5 0.4932,-0.0822 1,0 1.5,0 0.16667,0 0.33831,0.0404 0.5,0 0.51131,-0.12783 0.98869,-0.37218 1.5,-0.5 0.42603,-0.10651 1.05917,0 1.5,0 1.5,0 3,0 4.5,0"
           style="fill:none;stroke:#000000;stroke-width:1px;stroke-linecap:butt;stroke-linejoin:miter;stroke-opacity:1" />
      </g>
    </g>
    <rect
       style="fill:#ffffff;stroke:#000000;stroke-width:0.96200001;stroke-linejoin:miter;stroke-miterlimit:4;stroke-dasharray:none;stroke-dashoffset:0"
       id="rect3759"
       width="41.69643"
       height="26.785715"
       x="273.42343"
       y="311.88321"
       ry="2.6516504" />
    <path
       style="fill:none;stroke:#000000;stroke-width:1px;stroke-linecap:butt;stroke-linejoin:miter;stroke-opacity:1"
       d="m 273.38831,311.93615 41.6645,26.73094"
       id="path3761"
       inkscape:connector-curvature="0"
       sodipodi:nodetypes="cc" />
    <rect
       style="fill:#ffffff;stroke:#ffffff;stroke-width:0.33031163000000002;stroke-linejoin:miter;stroke-miterlimit:4;stroke-dasharray:none;stroke-dashoffset:0"
       id="rect3765"
       width="21.830948"
       height="59.631969"
       x="-114.25113"
       y="393.34509"
       ry="0"
       transform="matrix(0.54000515,-0.84166171,0.84166171,0.54000515,0,0)"
       inkscape:transform-center-x="-11.874216"
       inkscape:transform-center-y="7.9846373" />
    <path
       style="fill:none;stroke:#000000;stroke-width:0.96200001;stroke-linecap:butt;stroke-linejoin:miter;stroke-miterlimit:4;stroke-opacity:1;stroke-dasharray:none"
       d="m 311.0271,338.67468 4.1875,0"
       id="path3769"
       inkscape:connector-curvature="0" />
    <path
       inkscape:connector-curvature="0"
       id="path3771"
       d="m 273.4021,312.23718 0,4.1875"
       style="fill:none;stroke:#000000;stroke-width:0.96200001;stroke-linecap:butt;stroke-linejoin:miter;stroke-miterlimit:4;stroke-opacity:1;stroke-dasharray:none" />
    <text
       xml:space="preserve"
       style="font-size:12px;font-style:normal;font-variant:normal;font-weight:normal;font-stretch:normal;line-height:125%;letter-spacing:0px;word-spacing:0px;fill:#000000;fill-opacity:1;stroke:none;font-family:Sans;-inkscape-font-specification:Clean"
       x="158.5"
       y="333.86218"
       id="text3935"
       sodipodi:linespacing="125%"><tspan
         sodipodi:role="line"
         id="tspan3937"
         x="158.5"
         y="333.86218">Random Rule Set</tspan></text>
    <path
       style="fill:none;stroke:#000000;stroke-width:1;stroke-linecap:butt;stroke-linejoin:miter;stroke-opacity:1;stroke-miterlimit:4;stroke-dasharray:2,4;stroke-dashoffset:0"
       d="m 142,413.04968 173.25,0"
       id="path3939"
       inkscape:connector-curvature="0" />
    <path
       style="fill:none;stroke:#000000;stroke-width:1;stroke-linecap:butt;stroke-linejoin:miter;stroke-opacity:1;stroke-miterlimit:4;stroke-dasharray:2,4;stroke-dashoffset:0"
       d="m 142.25,476.61218 172.75,0"
       id="path3941"
       inkscape:connector-curvature="0"
       sodipodi:nodetypes="cc" />
    <text
       xml:space="preserve"
       style="font-size:10px;font-style:normal;font-variant:normal;font-weight:normal;font-stretch:normal;line-height:125%;letter-spacing:0px;word-spacing:0px;fill:#000000;fill-opacity:1;stroke:none;font-family:Sans;-inkscape-font-specification:Clean"
       x="-463.53693"
       y="300.9454"
       id="text3943"
       sodipodi:linespacing="125%"
       transform="matrix(0,-1,1,0,0,0)"><tspan
         sodipodi:role="line"
         id="tspan3945"
         x="-463.53693"
         y="300.9454">Average</tspan></text>
    <text
       sodipodi:linespacing="125%"
       id="text3947"
       y="300.93262"
       x="-520.33875"
       style="font-size:10px;font-style:normal;font-variant:normal;font-weight:normal;font-stretch:normal;line-height:125%;letter-spacing:0px;word-spacing:0px;fill:#000000;fill-opacity:1;stroke:none;font-family:Sans;-inkscape-font-specification:Clean"
       xml:space="preserve"
       transform="matrix(0,-1,1,0,0,0)"><tspan
         y="300.93262"
         x="-520.33875"
         id="tspan3949"
         sodipodi:role="line">Bad</tspan></text>
    <text
       sodipodi:linespacing="125%"
       id="text3951"
       y="300.90625"
       x="-391.62488"
       style="font-size:10px;font-style:normal;font-variant:normal;font-weight:normal;font-stretch:normal;line-height:125%;letter-spacing:0px;word-spacing:0px;fill:#000000;fill-opacity:1;stroke:none;font-family:Sans;-inkscape-font-specification:Clean"
       xml:space="preserve"
       transform="matrix(0,-1,1,0,0,0)"><tspan
         y="300.90625"
         x="-391.62488"
         id="tspan3953"
         sodipodi:role="line">Good</tspan></text>
  </g>
</svg>
